<svg xmlns="http://www.w3.org/2000/svg" width="500mm" height="119.557mm" viewBox="0 0 500 119.557"><defs><clipPath id="a" clipPathUnits="userSpaceOnUse"><path d="M0 114.378h503.11V0H0Z"/></clipPath></defs><path d="m0 0-5.294 11.435V0H-7.63v14.031h3.463L1.127 2.557v11.474h2.336V0Z" style="fill:#58595b;fill-opacity:1;fill-rule:nonzero;stroke:none" transform="matrix(1.20544 0 0 -1.20544 163.225 102.853)"/><g clip-path="url(#a)" transform="matrix(1.20544 0 0 -1.20544 -53.143 128.716)"><path d="M0 0c.591 0 1.175.145 1.752.433.577.289.993.621 1.248.997v1.711H.967c-1.154 0-1.96-.148-2.416-.443-.443-.336-.664-.738-.664-1.208 0-.429.187-.785.563-1.067C-1.174.142-.657 0 0 0m.624 4.933H3c0 .657-.255 1.15-.765 1.479-.51.328-1.248.493-2.214.493H-.04c-.912 0-1.879-.215-2.898-.644l-.584 1.792c1.06.456 2.227.69 3.502.704h.041c1.691 0 2.989-.325 3.895-.977.905-.65 1.358-1.687 1.358-3.109V-1.57H3.101v1.107a4.367 4.367 0 0 0-1.58-.996 5.368 5.368 0 0 0-1.903-.353c-1.208 0-2.184.319-2.929.957-.745.637-1.118 1.418-1.118 2.345 0 1.033.464 1.885 1.39 2.557.858.59 2.08.886 3.663.886" style="fill:#58595b;fill-opacity:1;fill-rule:nonzero;stroke:none" transform="translate(189.393 23.025)"/><path d="M0 0v-3.241h2.193v-1.853H0v-5.133c0-.483.117-.815.352-.996.235-.181.567-.272.997-.272h.844v-1.832H.805c-1.087 0-1.879.242-2.375.725-.497.483-.745 1.201-.745 2.154v5.354h-1.732v1.853h1.732V0Z" style="fill:#58595b;fill-opacity:1;fill-rule:nonzero;stroke:none" transform="translate(200.26 34.782)"/><path d="M204.424 31.541h2.295V21.455h-2.295zm2.597 3.141c0-.376-.145-.708-.433-.997a1.415 1.415 0 0 0-1.037-.433 1.41 1.41 0 0 0-1.036.433c-.289.289-.434.621-.434.997 0 .402.145.748.434 1.036.288.289.633.432 1.036.432.402 0 .748-.143 1.037-.432.288-.288.433-.634.433-1.036" style="fill:#58595b;fill-opacity:1;fill-rule:nonzero;stroke:none"/><path d="M0 0c.832 0 1.547.318 2.144.956.597.637.896 1.446.896 2.426 0 .966-.299 1.774-.896 2.426-.597.65-1.312.976-2.144.976-.818 0-1.526-.326-2.124-.976-.597-.652-.896-1.46-.896-2.426 0-.98.299-1.789.896-2.426C-1.526.318-.818 0 0 0m0-1.893c-1.477 0-2.734.507-3.774 1.52-1.04 1.014-1.561 2.265-1.561 3.755 0 1.489.521 2.744 1.561 3.764 1.04 1.02 2.297 1.53 3.774 1.53 1.489 0 2.751-.51 3.784-1.53 1.034-1.02 1.551-2.275 1.551-3.764 0-1.49-.517-2.741-1.551-3.755C2.751-1.386 1.489-1.893 0-1.893" style="fill:#58595b;fill-opacity:1;fill-rule:nonzero;stroke:none" transform="translate(214.143 23.106)"/><path d="M0 0v-5.073h-2.274V5.013H-.08V3.664c.268.47.657.852 1.167 1.148.511.294 1.06.442 1.651.442 1.195 0 2.151-.406 2.868-1.218.718-.812 1.078-1.895 1.078-3.251v-5.858H4.389V.201c0 1.073-.175 1.869-.524 2.386-.348.517-.886.775-1.61.775-.376 0-.741-.125-1.097-.373a2.352 2.352 0 0 1-.815-1.016C.114 1.477 0 .818 0 0" style="fill:#58595b;fill-opacity:1;fill-rule:nonzero;stroke:none" transform="translate(223.72 26.528)"/><path d="M0 0c.591 0 1.175.145 1.752.433.577.289.993.621 1.248.997v1.711H.967c-1.154 0-1.96-.148-2.416-.443-.443-.336-.664-.738-.664-1.208 0-.429.187-.785.563-1.067C-1.174.142-.657 0 0 0m.624 4.933H3c0 .657-.255 1.15-.765 1.479-.51.328-1.248.493-2.214.493H-.04c-.912 0-1.879-.215-2.898-.644l-.584 1.792c1.06.456 2.227.69 3.502.704h.041c1.691 0 2.989-.325 3.895-.977.905-.65 1.358-1.687 1.358-3.109V-1.57H3.101v1.107a4.367 4.367 0 0 0-1.58-.996 5.368 5.368 0 0 0-1.903-.353c-1.208 0-2.184.319-2.929.957-.745.637-1.118 1.418-1.118 2.345 0 1.033.464 1.885 1.39 2.557.858.59 2.08.886 3.663.886" style="fill:#58595b;fill-opacity:1;fill-rule:nonzero;stroke:none" transform="translate(236.781 23.025)"/><path d="M244.709 36.412h2.274V21.455h-2.274z" style="fill:#58595b;fill-opacity:1;fill-rule:nonzero;stroke:none"/><path d="M0 0h-8.354v14.031h2.355V1.974H0Z" style="fill:#58595b;fill-opacity:1;fill-rule:nonzero;stroke:none" transform="translate(264.147 21.455)"/><path d="M265.895 31.541h2.295V21.455h-2.295zm2.596 3.141c0-.376-.144-.708-.432-.997a1.416 1.416 0 0 0-1.038-.433c-.402 0-.748.144-1.036.433-.289.289-.433.621-.433.997 0 .402.144.748.433 1.036a1.41 1.41 0 0 0 1.036.432c.403 0 .749-.143 1.038-.432.288-.288.432-.634.432-1.036" style="fill:#58595b;fill-opacity:1;fill-rule:nonzero;stroke:none"/><path d="M0 0c.08-.752.362-1.382.846-1.892.536-.564 1.207-.845 2.012-.845.872 0 1.567.318 2.084.956.516.636.775 1.446.775 2.426 0 .965-.259 1.774-.775 2.425-.517.651-1.212.977-2.084.977-.805 0-1.476-.282-2.012-.846C.362 2.69.08 2.054 0 1.288A6.926 6.926 0 0 1 0 0m3.08 5.938c1.463 0 2.653-.526 3.573-1.58.919-1.053 1.379-2.292 1.379-3.713 0-1.423-.46-2.658-1.379-3.705-.92-1.046-2.11-1.57-3.573-1.57-1.262 0-2.322.503-3.181 1.51v-1.269h-2.194v14.957h2.274V4.489c.873.966 1.907 1.449 3.101 1.449" style="fill:#58595b;fill-opacity:1;fill-rule:nonzero;stroke:none" transform="translate(273.28 25.844)"/><path d="M0 0v10.086h2.154v-1.51a3.57 3.57 0 0 0 1.228 1.148c.577.348 1.255.523 2.033.523h.161V8.193h-.241c-.953 0-1.712-.288-2.275-.865-.524-.563-.786-1.443-.786-2.638V0Z" style="fill:#58595b;fill-opacity:1;fill-rule:nonzero;stroke:none" transform="translate(283.24 21.455)"/><path d="M0 0c.591 0 1.175.145 1.752.433.577.289.993.621 1.248.997v1.711H.967c-1.154 0-1.96-.148-2.416-.443-.443-.336-.664-.738-.664-1.208 0-.429.187-.785.563-1.067C-1.174.142-.657 0 0 0m.624 4.933H3c0 .657-.255 1.15-.765 1.479-.51.328-1.248.493-2.214.493H-.04c-.912 0-1.879-.215-2.898-.644l-.584 1.792c1.06.456 2.227.69 3.502.704h.041c1.691 0 2.989-.325 3.895-.977.905-.65 1.358-1.687 1.358-3.109V-1.57H3.101v1.107a4.367 4.367 0 0 0-1.58-.996 5.368 5.368 0 0 0-1.903-.353c-1.208 0-2.184.319-2.929.957-.745.637-1.118 1.418-1.118 2.345 0 1.033.464 1.885 1.39 2.557.858.59 2.08.886 3.663.886" style="fill:#58595b;fill-opacity:1;fill-rule:nonzero;stroke:none" transform="translate(294.065 23.025)"/><path d="M0 0v10.086h2.154v-1.51a3.57 3.57 0 0 0 1.228 1.148c.577.348 1.255.523 2.033.523h.161V8.193h-.241c-.953 0-1.712-.288-2.275-.865-.524-.563-.786-1.443-.786-2.638V0Z" style="fill:#58595b;fill-opacity:1;fill-rule:nonzero;stroke:none" transform="translate(301.993 21.455)"/><path d="m0 0-3.966 9.703h2.375l2.738-6.885 2.718 6.885H6.22L.604-4.308h-2.335z" style="fill:#58595b;fill-opacity:1;fill-rule:nonzero;stroke:none" transform="translate(312.377 21.838)"/><path d="M0 0c.832 0 1.547.318 2.144.956.597.637.896 1.446.896 2.426 0 .966-.299 1.774-.896 2.426-.597.65-1.312.976-2.144.976-.818 0-1.526-.326-2.124-.976-.597-.652-.896-1.46-.896-2.426 0-.98.299-1.789.896-2.426C-1.526.318-.818 0 0 0m0-1.893c-1.477 0-2.734.507-3.774 1.52-1.04 1.014-1.561 2.265-1.561 3.755 0 1.489.521 2.744 1.561 3.764 1.04 1.02 2.297 1.53 3.774 1.53 1.489 0 2.751-.51 3.784-1.53 1.034-1.02 1.551-2.275 1.551-3.764 0-1.49-.517-2.741-1.551-3.755C2.751-1.386 1.489-1.893 0-1.893" style="fill:#58595b;fill-opacity:1;fill-rule:nonzero;stroke:none" transform="translate(329.802 23.106)"/><path d="M0 0c0 .953.265 1.671.795 2.154.53.484 1.339.725 2.426.725h1.107V1.047h-.664c-.43 0-.762-.091-.997-.272-.234-.181-.352-.513-.352-.997v-1.791h2.013v-1.852H2.315v-8.234H0v8.234h-1.731v1.852H0Z" style="fill:#58595b;fill-opacity:1;fill-rule:nonzero;stroke:none" transform="translate(337.629 33.554)"/><path d="m0 0 5.838 6.522h2.838L2.415-.442l6.24-7.067H5.736L0-.986v-6.523h-2.336V6.522H0Z" style="fill:#58595b;fill-opacity:1;fill-rule:nonzero;stroke:none" transform="translate(352.257 28.964)"/><path d="M0 0c.832 0 1.547.318 2.144.956.597.637.896 1.446.896 2.426 0 .966-.299 1.774-.896 2.426-.597.65-1.312.976-2.144.976-.818 0-1.526-.326-2.124-.976-.597-.652-.896-1.46-.896-2.426 0-.98.299-1.789.896-2.426C-1.526.318-.818 0 0 0m0-1.893c-1.477 0-2.734.507-3.774 1.52-1.04 1.014-1.561 2.265-1.561 3.755 0 1.489.521 2.744 1.561 3.764 1.04 1.02 2.297 1.53 3.774 1.53 1.489 0 2.751-.51 3.784-1.53 1.034-1.02 1.551-2.275 1.551-3.764 0-1.49-.517-2.741-1.551-3.755C2.751-1.386 1.489-1.893 0-1.893" style="fill:#58595b;fill-opacity:1;fill-rule:nonzero;stroke:none" transform="translate(366.022 23.106)"/><path d="M0 0v10.086h2.154v-1.51a3.57 3.57 0 0 0 1.228 1.148c.577.348 1.255.523 2.033.523h.161V8.193h-.241c-.953 0-1.712-.288-2.275-.865-.524-.563-.786-1.443-.786-2.638V0Z" style="fill:#58595b;fill-opacity:1;fill-rule:nonzero;stroke:none" transform="translate(373.325 21.455)"/><path d="M0 0h5.597c-.028.658-.302 1.259-.826 1.802-.523.544-1.188.815-1.993.815-.832 0-1.516-.295-2.053-.886C.336 1.289.094.712 0 0m.04-1.812c.135-.617.423-1.12.866-1.509.645-.591 1.496-.886 2.557-.886 1.113 0 2.153.409 3.12 1.228l.685-1.691c-1.087-.939-2.376-1.409-3.866-1.409-1.704 0-3.09.483-4.157 1.449-1.066.967-1.6 2.234-1.6 3.805 0 1.543.473 2.815 1.419 3.815.947.999 2.184 1.499 3.714 1.499 1.503 0 2.735-.496 3.695-1.489.959-.993 1.438-2.222 1.438-3.684 0-.403-.033-.779-.1-1.128z" style="fill:#58595b;fill-opacity:1;fill-rule:nonzero;stroke:none" transform="translate(381.977 27.293)"/><path d="M0 0c.591 0 1.175.145 1.752.433.577.289.993.621 1.248.997v1.711H.967c-1.154 0-1.96-.148-2.416-.443-.443-.336-.664-.738-.664-1.208 0-.429.187-.785.563-1.067C-1.174.142-.657 0 0 0m.624 4.933H3c0 .657-.255 1.15-.765 1.479-.51.328-1.248.493-2.214.493H-.04c-.912 0-1.879-.215-2.898-.644l-.584 1.792c1.06.456 2.227.69 3.502.704h.041c1.691 0 2.989-.325 3.895-.977.905-.65 1.358-1.687 1.358-3.109V-1.57H3.101v1.107a4.367 4.367 0 0 0-1.58-.996 5.368 5.368 0 0 0-1.903-.353c-1.208 0-2.184.319-2.929.957-.745.637-1.118 1.418-1.118 2.345 0 1.033.464 1.885 1.39 2.557.858.59 2.08.886 3.663.886" style="fill:#58595b;fill-opacity:1;fill-rule:nonzero;stroke:none" transform="translate(395.56 23.025)"/><path d="M0 0c-8.622 5.855-19.651 3.467-25.44-5.339a18.002 18.002 0 0 0-14.97-8.27c-9.212 0-15.523 6.482-17.391 13.19h-.007c-.01.067-.028.123-.046.189a3.88 3.88 0 0 0-.06.226c-.735 2.797-.915 4.135-.915 7.109 0 16.041 16.46 33.899 40.163 33.899 24.272 0 38.159-18.477 41.728-28.746-.056.18-.112.358-.176.545-6.883 20.085-25.934 34.528-48.355 34.528-28.227 0-51.109-22.879-51.109-51.109 0-25.23 18.2-46.829 43.44-46.829 20.131 0 33.662 11.289 39.87 26.844C10.143-15.253 7.722-5.255 0 0" style="fill:#003964;fill-opacity:1;fill-rule:nonzero;stroke:none" transform="translate(120.664 59.448)"/><path d="M0 0c-2.984 10.02-16.974 29.742-42.052 29.742-23.703 0-40.163-17.857-40.163-33.898 0-2.975.18-4.313.915-7.11a14.919 14.919 0 0 0-.468 3.647c0 16.704 16.724 28.281 33.919 28.281 23.274 0 42.141-18.871 42.141-42.141 0-18.246-10.5-34.035-25.755-41.623l.004-.01c19.666 7.12 33.708 25.955 33.708 48.072C2.249-9.805 1.545-5.191 0 0" style="fill:#ed193a;fill-opacity:1;fill-rule:nonzero;stroke:none" transform="translate(144.05 70.71)"/><path d="M0 0v-11.814h-4.93v7.461h-25.627V0Zm-17.676-25.094v5.774h-15.722v4.352H3.021v-4.352h-15.767v-5.774H.09v-13.812h-4.93v9.504h-26.072v4.308z" style="fill:#58595b;fill-opacity:1;fill-rule:nonzero;stroke:none" transform="translate(205.269 89.613)"/><path d="M243.153 90.412h4.93V68.294h-4.93zm.09-30.734H221.88v-3.997h21.363zm-26.205 7.284h4.842v-3.286h21.363v3.286h4.84V51.595h-31.045zm19.143 2.088h-21.364v12.08h16.034v3.953h-16.034v4.175h20.92V77.133h-16.033v-3.997h16.477z" style="fill:#58595b;fill-opacity:1;fill-rule:nonzero;stroke:none"/><path d="M0 0c0 1.361-.51 2.538-1.531 3.53-1.022.992-2.215 1.489-3.576 1.489-1.362 0-2.553-.497-3.575-1.489-1.021-.992-1.533-2.169-1.533-3.53 0-1.362.512-2.54 1.533-3.531C-7.66-4.523-6.469-5.02-5.107-5.02c1.361 0 2.554.497 3.576 1.489C-.51-2.54 0-1.362 0 0m10.527 27.536H-2.842l14.123-7.462-2.263-3.641-14.125 7.505-14.168-7.505-2.221 3.641 14.125 7.462H-20.74v4.175h31.267ZM-7.594 8.927v2.398h-15.722v4.219h36.42v-4.219H-2.664V8.927a10.02 10.02 0 0 0 1.422-.445c1.213-.503 2.263-1.17 3.152-1.998a9.654 9.654 0 0 0 2.133-2.909A8.156 8.156 0 0 0 4.842 0a8.157 8.157 0 0 0-.799-3.576A9.638 9.638 0 0 0 1.91-6.484c-.889-.829-1.939-1.489-3.152-1.977a10.256 10.256 0 0 0-3.865-.733 10.24 10.24 0 0 0-3.864.733c-1.215.488-2.265 1.148-3.154 1.977a9.665 9.665 0 0 0-2.131 2.908A8.157 8.157 0 0 0-15.055 0c0 1.272.266 2.465.799 3.575a9.682 9.682 0 0 0 2.131 2.909c.889.828 1.939 1.495 3.154 1.998.444.178.903.326 1.377.445" style="fill:#58595b;fill-opacity:1;fill-rule:nonzero;stroke:none" transform="translate(278.151 58.213)"/><path d="M0 0h-4.887v21.008H0v-7.949h5.686V8.173H0Zm-6.574-9.904c0 1.54-.563 2.872-1.688 3.998-1.125 1.125-2.472 1.687-4.041 1.687-1.57 0-2.91-.562-4.019-1.687-1.112-1.126-1.666-2.458-1.666-3.998 0-1.57.554-2.902 1.666-3.997 1.109-1.095 2.449-1.643 4.019-1.643 1.569 0 2.916.548 4.041 1.643 1.125 1.095 1.688 2.427 1.688 3.997m4.797-.044a8.94 8.94 0 0 0-.844-3.842 10.55 10.55 0 0 0-2.221-3.131 11.277 11.277 0 0 0-3.353-2.177c-1.258-.533-2.614-.798-4.063-.798-1.451 0-2.814.265-4.086.798a11.253 11.253 0 0 0-3.377 2.177 10.126 10.126 0 0 0-2.263 3.131 8.896 8.896 0 0 0-.844 3.842 9.05 9.05 0 0 0 .844 3.864 9.528 9.528 0 0 0 2.263 3.108 11.234 11.234 0 0 0 3.377 2.177c1.272.533 2.635.799 4.086.799 1.449 0 2.805-.266 4.063-.799a11.257 11.257 0 0 0 3.353-2.177c.918-.858 1.658-1.894 2.221-3.108a9.095 9.095 0 0 0 .844-3.864m-14.168 20.563c0 1.628-.576 3.021-1.733 4.175-1.154 1.155-2.547 1.732-4.174 1.732-1.658 0-3.05-.577-4.175-1.732-1.125-1.154-1.688-2.547-1.688-4.175 0-1.658.563-3.057 1.688-4.197 1.125-1.14 2.517-1.71 4.175-1.71 1.627 0 3.02.57 4.174 1.71 1.157 1.14 1.733 2.539 1.733 4.197m4.752.045c0-1.422-.287-2.739-.866-3.953a10.965 10.965 0 0 0-2.287-3.198 11.1 11.1 0 0 0-3.398-2.176 10.635 10.635 0 0 0-4.108-.8c-1.451 0-2.82.267-4.109.8a11.114 11.114 0 0 0-3.396 2.176 10.592 10.592 0 0 0-2.332 3.198c-.579 1.214-.866 2.531-.866 3.953 0 1.391.287 2.701.866 3.931a10.002 10.002 0 0 0 2.332 3.175 11.114 11.114 0 0 0 3.396 2.176c1.289.534 2.658.8 4.109.8 1.45 0 2.821-.266 4.108-.8a11.1 11.1 0 0 0 3.398-2.176 10.333 10.333 0 0 0 2.287-3.175c.579-1.23.866-2.54.866-3.931" style="fill:#58595b;fill-opacity:1;fill-rule:nonzero;stroke:none" transform="translate(328.429 69.404)"/><path d="M0 0v20.475h30.557v-4.308H4.885V4.309h25.76V0H17.721v-9.815h15.767v-4.353h-36.42v4.353h15.723V0Z" style="fill:#58595b;fill-opacity:1;fill-rule:nonzero;stroke:none" transform="translate(340.731 67.894)"/><path d="M0 0h-7.771v4.353H0v13.589h4.93v-39.617H0Zm-17.766 17.677 12.969-32.023-4.396-1.91-8.573 21.719-8.527-22.029-4.441 1.954z" style="fill:#58595b;fill-opacity:1;fill-rule:nonzero;stroke:none" transform="translate(409.083 72.47)"/><path d="M0 0h-4.93v26.026H0V15.367h5.064v-4.485H0Zm-30.867-12.924v11.903h4.93v-7.55H.711v-4.353zm15.855 23.318v10.525h-16.877v4.309h21.719V10.394Zm7.063-3.776V2.31h-25.715v4.308h8.037v8.838h4.887V6.618Z" style="fill:#58595b;fill-opacity:1;fill-rule:nonzero;stroke:none" transform="translate(453.808 64.386)"/></g></svg>